<svg width="17" height="14" viewBox="0 0 17 14" fill="none" xmlns="http://www.w3.org/2000/svg">
<g clip-path="url(#clip0_1_111)">
<path d="M9.82031 6.71875C11.6764 6.71875 13.1797 5.21543 13.1797 3.35938C13.1797 1.50332 11.6764 0 9.82031 0C7.96426 0 6.46094 1.50332 6.46094 3.35938C6.46094 5.21543 7.96426 6.71875 9.82031 6.71875ZM9.82031 8.39844C7.57793 8.39844 3.10156 9.52383 3.10156 11.7578V13.4375H16.5391V11.7578C16.5391 9.52383 12.0627 8.39844 9.82031 8.39844Z" fill="#7C7C7C"/>
</g>
<path fill-rule="evenodd" clip-rule="evenodd" d="M5.74585 2.59488C5.59212 2.96275 5.50721 3.36662 5.50721 3.79041C5.50721 4.99558 6.19385 6.03964 7.19745 6.55292C6.73744 7.17647 5.99755 7.58076 5.16279 7.58076C3.76679 7.58076 2.63608 6.45006 2.63608 5.05405C2.63608 3.65805 3.76679 2.52734 5.16279 2.52734C5.36349 2.52734 5.5587 2.55071 5.74585 2.59488ZM5.75738 8.87333C4.03362 9.35758 2.40625 10.2487 2.40625 11.5428V12.6342H0.109375V11.3708C0.109375 9.69056 3.47621 8.84412 5.16279 8.84412C5.34373 8.84412 5.544 8.85386 5.75738 8.87333Z" fill="#7C7C7C"/>
<defs>
<clipPath id="clip0_1_111">
<rect width="16.5385" height="13.4375" fill="white"/>
</clipPath>
</defs>
</svg>
