<svg width="9" height="15" viewBox="0 0 9 15" fill="none" xmlns="http://www.w3.org/2000/svg">
<path fill-rule="evenodd" clip-rule="evenodd" d="M3.64947 0.000640869H4.97517C5.77884 0.000640869 6.43415 0.635824 6.46649 1.43156C6.51019 1.41582 6.55732 1.40724 6.60645 1.40724H8.39744C8.62553 1.40724 8.81043 1.59214 8.81043 1.82022V2.01084C8.81043 2.23892 8.62553 2.42382 8.39744 2.42382H6.60645C6.55731 2.42382 6.51016 2.41524 6.46645 2.39949C6.44624 2.88896 6.19029 3.3176 5.80915 3.57486C7.32295 4.16507 8.39555 5.63721 8.39555 7.35988V11.5586C8.39555 12.3189 7.77922 12.9352 7.01892 12.9352H6.47068V10.5942C6.47068 9.4538 5.54617 8.52929 4.40573 8.52929H4.26807C3.12763 8.52929 2.20312 9.4538 2.20312 10.5942V12.9352H1.65007C0.889776 12.9352 0.273438 12.3189 0.273438 11.5586V7.35988C0.273438 5.6478 1.3329 4.18317 2.83198 3.58583C2.44523 3.33219 2.1834 2.90374 2.15879 2.41279C2.12823 2.42001 2.09635 2.42382 2.06357 2.42382H0.412989C0.184901 2.42382 0 2.23892 0 2.01084V1.82022C0 1.59214 0.184901 1.40724 0.412989 1.40724H2.06357C2.09633 1.40724 2.12819 1.41105 2.15874 1.41826C2.19779 0.628756 2.85028 0.000640869 3.64947 0.000640869ZM3.64947 0.890621C3.31666 0.890621 3.04688 1.16041 3.04688 1.49321V2.33684C3.04688 2.66964 3.31666 2.93943 3.64947 2.93943H4.97517C5.30797 2.93943 5.57776 2.66964 5.57776 2.33684V1.49321C5.57776 1.16041 5.30797 0.890621 4.97517 0.890621H3.64947ZM4.28932 9.35546C3.43918 9.35546 2.75 10.0446 2.75 10.8948V13.4603C2.75 14.3105 3.43918 14.9996 4.28932 14.9996H4.39194C5.24209 14.9996 5.93127 14.3105 5.93127 13.4603V10.8948C5.93127 10.0446 5.24209 9.35546 4.39194 9.35546H4.28932Z" fill="#7C7C7C"/>
</svg>
